# xmcd
#
# Track frame offsets:
#	150
#	16028
#	33077
#	49709
#	66392
#	85761
#	103028
#	122654
#	139547
#	157329
#
# Disc length: 2311 seconds
#
# Revision: 1
# Processed by: cddbd v1.5.2PL0 Copyright (c) Steve Scherf et al.
# Submitted via: audiograbber 1.83.01
#
DISCID=7b09050a
DTITLE=Wade Bowen - The Given
DYEAR=2012
DGENRE=Country
TTITLE0=Saturday Night
TTITLE1=All That's Left
TTITLE2=A Battle Won
TTITLE3=Patch Of Bad Weather
TTITLE4=On My Way To Wonderful
TTITLE5=Say Anything
TTITLE6=You Ain't Got Me
TTITLE7=Beat Me Down
TTITLE8=To Live Is To Fly
TTITLE9=Before These Walls Were Blue
EXTD=
EXTT0=
EXTT1=
EXTT2=
EXTT3=
EXTT4=
EXTT5=
EXTT6=
EXTT7=
EXTT8=
EXTT9=
PLAYORDER=
